# xmcd
#
# Track frame offsets:
#	150
#	18598
#	37183
#	62714
#	82375
#	98832
#	116966
#	140122
#	159229
#	178159
#	199716
#	215859
#
# Disc length: 3197 seconds
#
# Revision: 1
# Processed by: cddbd v1.5.2PL0 Copyright (c) Steve Scherf et al.
# Submitted via: audiograbber 1.83.01
#
DISCID=bd0c7b0c
DTITLE=сумодимос петяос [2003] - аккацг хеялойяасиас
DYEAR=2003
DGENRE=
TTITLE0=елема лоу жтамеи
TTITLE1=о вягслос тоу теияесиа
TTITLE2=амелои бояеиои
TTITLE3=сто килами
TTITLE4=стицлес
TTITLE5=се лиа таимиа
TTITLE6=йаи пеяилемоум
TTITLE7=тгс ломаниас та саббата
TTITLE8=пеяи ахамасиас
TTITLE9=олояжа паидиа
TTITLE10=сулптысеис
TTITLE11=та вяуса лаккиа тгс беяемийгс
EXTD=
EXTT0=
EXTT1=
EXTT2=
EXTT3=
EXTT4=
EXTT5=
EXTT6=
EXTT7=
EXTT8=
EXTT9=
EXTT10=
EXTT11=
PLAYORDER=
